<svg width="12" height="12" viewBox="0 0 12 12" fill="none" xmlns="http://www.w3.org/2000/svg">
<mask id="path-1-inside-1_304_548" fill="white">
<path fill-rule="evenodd" clip-rule="evenodd" d="M1 6.00002C1.84158 3.93979 3.7636 2.5 6.00001 2.5C8.23642 2.5 10.1584 3.93977 11 5.99999C10.1584 8.06022 8.23642 9.50001 6 9.50001C3.76359 9.50001 1.84159 8.06024 1 6.00002Z"/>
</mask>
<path d="M1 6.00002L0.305693 5.71641L0.189839 6.00003L0.305695 6.28364L1 6.00002ZM11 5.99999L11.6943 6.2836L11.8102 5.99999L11.6943 5.71637L11 5.99999ZM1.69431 6.28364C2.43384 4.47322 4.10167 3.25 6.00001 3.25V1.75C3.42552 1.75 1.24932 3.40636 0.305693 5.71641L1.69431 6.28364ZM6.00001 3.25C7.89834 3.25 9.56617 4.4732 10.3057 6.28361L11.6943 5.71637C10.7507 3.40634 8.5745 1.75 6.00001 1.75V3.25ZM10.3057 5.71637C9.56617 7.52679 7.89834 8.75001 6 8.75001V10.25C8.5745 10.25 10.7507 8.59365 11.6943 6.2836L10.3057 5.71637ZM6 8.75001C4.10167 8.75001 2.43384 7.52681 1.69431 5.7164L0.305695 6.28364C1.24933 8.59367 3.42552 10.25 6 10.25V8.75001Z" fill="#8C8797" mask="url(#path-1-inside-1_304_548)"/>
<circle cx="6" cy="6" r="1.1875" stroke="#8C8797" stroke-width="0.625"/>
</svg>
